<svg width="306" height="62" viewBox="0 0 306 62" fill="none" xmlns="http://www.w3.org/2000/svg">
<path d="M40.0311 31.2L38.8411 37.22H32.1911L30.2311 48.28H21.1311L23.0911 37.22H16.7211L14.7611 48.28H5.66109L7.69109 37.22H0.411094L1.60109 31.2H8.74109L10.0011 23.78H3.00109L4.19109 17.76H11.1211L12.8711 7.82H21.9711L20.2211 17.76H26.5911L28.3411 7.82H37.3711L35.6211 17.76H42.6211L41.5011 23.78H34.5711L33.2411 31.2H40.0311ZM17.8411 31.2H24.2111L25.4711 23.78H19.0311L17.8411 31.2ZM67.085 48.91C60.1317 48.91 54.905 47.2767 51.405 44.01C47.9517 40.6967 46.225 35.4 46.225 28.12C46.225 20.98 48.1383 15.7767 51.965 12.51C55.7917 9.24333 60.855 7.61 67.155 7.61C80.4083 7.61 87.035 14.2133 87.035 27.42C87.035 34.0933 85.4017 39.3433 82.135 43.17C78.915 46.9967 73.8983 48.91 67.085 48.91ZM66.805 40.65C68.1117 40.65 69.2083 40.44 70.095 40.02C70.9817 39.5533 71.6817 38.76 72.195 37.64C73.175 35.7267 73.665 32.6 73.665 28.26C73.665 24.0133 73.175 20.9333 72.195 19.02C71.215 17.06 69.4183 16.0333 66.805 15.94C65.825 15.94 64.7983 16.0567 63.725 16.29C62.6983 16.4767 62.045 16.7567 61.765 17.13C61.205 17.7833 60.7617 19.1833 60.435 21.33C60.155 23.43 60.015 25.74 60.015 28.26C60.015 32.18 60.3883 35.05 61.135 36.87C61.6483 38.2233 62.3717 39.2033 63.305 39.81C64.2383 40.37 65.405 40.65 66.805 40.65ZM111.925 15.1C112.532 15.1 113.162 15.17 113.815 15.31C114.515 15.45 115.029 15.6133 115.355 15.8C115.355 16.8267 115.239 18.53 115.005 20.91C114.772 23.2433 114.562 24.9 114.375 25.88C113.909 25.8333 113.045 25.81 111.785 25.81C108.845 25.81 106.232 25.9733 103.945 26.3V48H91.9755V15.8H101.985L103.385 20.98H103.455C104.809 19.2067 106.255 17.7833 107.795 16.71C109.335 15.6367 110.712 15.1 111.925 15.1ZM150.559 5.51V48H140.689L139.709 42.61C138.776 44.43 137.399 45.8767 135.579 46.95C133.759 48.0233 131.706 48.56 129.419 48.56C125.779 48.56 122.862 47.2533 120.669 44.64C118.522 42.0267 117.449 38.1067 117.449 32.88C117.449 28.9133 117.916 25.6467 118.849 23.08C119.782 20.5133 120.879 18.67 122.139 17.55C122.932 16.85 124.542 16.2667 126.969 15.8C129.442 15.3333 131.636 15.1 133.549 15.1C135.229 15.1 136.956 15.2633 138.729 15.59C138.589 13.35 138.519 12.1133 138.519 11.88V6L150.559 5.51ZM134.669 39.18C135.929 39.18 137.236 38.97 138.589 38.55V23.36C137.236 23.1733 135.742 23.08 134.109 23.08C132.709 23.08 131.822 23.1967 131.449 23.43C130.936 23.8033 130.516 24.8767 130.189 26.65C129.909 28.3767 129.769 30.1967 129.769 32.11C129.769 34.9567 130.189 36.8467 131.029 37.78C131.916 38.7133 133.129 39.18 134.669 39.18ZM175.832 39.6C176.998 39.6 179.168 39.4833 182.342 39.25C182.762 39.25 183.532 39.2033 184.652 39.11L185.702 46.32C182.108 48 177.442 48.84 171.702 48.84C166.335 48.84 162.205 47.4867 159.312 44.78C156.465 42.0733 155.042 37.99 155.042 32.53C155.042 29.73 155.392 27.0233 156.092 24.41C156.838 21.7967 157.678 19.9767 158.612 18.95C159.592 17.9233 161.412 17.0367 164.072 16.29C166.732 15.5433 169.368 15.17 171.982 15.17C176.182 15.17 179.332 15.9167 181.432 17.41C183.532 18.9033 184.908 20.98 185.562 23.64C186.215 26.2533 186.542 29.7767 186.542 34.21C183.368 34.3967 180.265 34.49 177.232 34.49H167.292C167.292 35.9833 167.595 37.1033 168.202 37.85C168.855 38.5967 169.765 39.0867 170.932 39.32C172.098 39.5067 173.732 39.6 175.832 39.6ZM167.992 23.5C167.712 23.64 167.502 24.2467 167.362 25.32C167.222 26.3933 167.128 27.6067 167.082 28.96H170.722C172.915 28.96 174.502 28.9367 175.482 28.89C175.482 26.65 175.155 25.0633 174.502 24.13C173.895 23.1967 172.822 22.73 171.282 22.73C170.022 22.73 168.925 22.9867 167.992 23.5ZM210.705 15.1C211.311 15.1 211.941 15.17 212.595 15.31C213.295 15.45 213.808 15.6133 214.135 15.8C214.135 16.8267 214.018 18.53 213.785 20.91C213.551 23.2433 213.341 24.9 213.155 25.88C212.688 25.8333 211.825 25.81 210.565 25.81C207.625 25.81 205.011 25.9733 202.725 26.3V48H190.755V15.8H200.765L202.165 20.98H202.235C203.588 19.2067 205.035 17.7833 206.575 16.71C208.115 15.6367 209.491 15.1 210.705 15.1ZM223.508 11.81C221.922 11.81 220.545 11.2733 219.378 10.2C218.258 9.12667 217.698 7.84333 217.698 6.35C217.698 4.85666 218.258 3.57333 219.378 2.5C220.545 1.42666 221.922 0.889997 223.508 0.889997C225.095 0.889997 226.448 1.42666 227.568 2.5C228.688 3.57333 229.248 4.85666 229.248 6.35C229.248 7.84333 228.688 9.12667 227.568 10.2C226.448 11.2733 225.095 11.81 223.508 11.81ZM217.488 15.8H229.458V48H217.488V15.8ZM266.543 17.83C266.963 18.3433 267.267 19.6267 267.453 21.68C267.687 23.7333 267.803 26.86 267.803 31.06V48H255.833V31.2V28.33C255.833 26.8367 255.717 25.9033 255.483 25.53C255.11 25.0633 254.247 24.83 252.893 24.83C252.24 24.83 251.75 24.8533 251.423 24.9C250.117 24.9467 248.763 25.25 247.363 25.81V48H235.393V15.8H245.123L246.453 21.19C249.813 17.13 253.827 15.1 258.493 15.1C260.173 15.1 261.737 15.3333 263.183 15.8C264.677 16.2667 265.797 16.9433 266.543 17.83ZM290.133 15.24C292.326 15.24 294.613 15.4033 296.993 15.73C299.373 16.01 302.15 16.4067 305.323 16.92V44.78C305.323 51.4533 303.106 56.6333 298.673 60.32C298.113 60.7867 296.853 61.1833 294.893 61.51C292.933 61.8367 290.716 62 288.243 62C282.876 62 278.63 61.3 275.503 59.9C275.456 58.8733 275.526 57.52 275.713 55.84C275.946 54.16 276.18 52.83 276.413 51.85C279.773 52.3633 283.063 52.62 286.283 52.62C287.916 52.62 289.293 52.5267 290.413 52.34C291.58 52.2 292.303 51.9667 292.583 51.64C292.956 51.2667 293.236 49.8667 293.423 47.44C293.47 46.7867 293.493 45.83 293.493 44.57V42.82C292.326 44.5467 290.833 45.7833 289.013 46.53C287.193 47.2767 285.56 47.65 284.113 47.65C280.193 47.65 277.23 46.3667 275.223 43.8C273.216 41.2333 272.213 37.4767 272.213 32.53C272.213 29.2633 272.656 26.2067 273.543 23.36C274.476 20.4667 275.736 18.46 277.323 17.34C278.35 16.64 280.006 16.1267 282.293 15.8C284.626 15.4267 287.24 15.24 290.133 15.24ZM288.663 38.9C290.39 38.9 291.953 38.62 293.353 38.06V23.43C292.84 23.3367 292.07 23.2433 291.043 23.15C290.576 23.1033 289.876 23.08 288.943 23.08C287.496 23.08 286.586 23.22 286.213 23.5C285.7 23.8733 285.28 24.9233 284.953 26.65C284.673 28.33 284.533 30.1033 284.533 31.97C284.533 34.5367 284.813 36.3333 285.373 37.36C285.98 38.3867 287.076 38.9 288.663 38.9Z" fill="#951ABE"/>
</svg>
